<mxfile host="Electron" modified="2023-10-12T16:46:24.468Z" agent="Mozilla/5.0 (Macintosh; Intel Mac OS X 10_15_7) AppleWebKit/537.36 (KHTML, like Gecko) draw.io/22.0.2 Chrome/114.0.5735.289 Electron/25.8.4 Safari/537.36" etag="QOyhLIz9MWPzAsCHETU3" version="22.0.2" type="device">
  <diagram id="C5RBs43oDa-KdzZeNtuy" name="Page-1">
    <mxGraphModel dx="940" dy="713" grid="1" gridSize="10" guides="1" tooltips="1" connect="1" arrows="1" fold="1" page="1" pageScale="1" pageWidth="3300" pageHeight="4681" background="none" math="0" shadow="0">
      <root>
        <mxCell id="WIyWlLk6GJQsqaUBKTNV-0" />
        <mxCell id="WIyWlLk6GJQsqaUBKTNV-1" parent="WIyWlLk6GJQsqaUBKTNV-0" />
        <mxCell id="vO7_4hMNc0B0kv95RmNf-16" value="O" style="swimlane;startSize=0;fillColor=#6a00ff;fontColor=#ffffff;strokeColor=#3399FF;shadow=0;opacity=90;labelBackgroundColor=#33FF33;textOpacity=90;glass=0;rounded=0;strokeWidth=5;" parent="WIyWlLk6GJQsqaUBKTNV-1" vertex="1">
          <mxGeometry x="180" y="550" width="900" height="920" as="geometry">
            <mxRectangle x="180" y="320" width="50" height="40" as="alternateBounds" />
          </mxGeometry>
        </mxCell>
        <mxCell id="vO7_4hMNc0B0kv95RmNf-46" value="" style="edgeStyle=orthogonalEdgeStyle;rounded=0;orthogonalLoop=1;jettySize=auto;html=1;" parent="vO7_4hMNc0B0kv95RmNf-16" source="WIyWlLk6GJQsqaUBKTNV-12" target="vO7_4hMNc0B0kv95RmNf-45" edge="1">
          <mxGeometry relative="1" as="geometry" />
        </mxCell>
        <mxCell id="WIyWlLk6GJQsqaUBKTNV-12" value="Vị trí con mắt" style="rounded=1;whiteSpace=wrap;html=1;fontSize=12;glass=0;strokeWidth=1;shadow=0;" parent="vO7_4hMNc0B0kv95RmNf-16" vertex="1">
          <mxGeometry x="189.37" y="365" width="183.75" height="80" as="geometry" />
        </mxCell>
        <mxCell id="WIyWlLk6GJQsqaUBKTNV-7" value="Vị trí khuôn mặt" style="rounded=1;whiteSpace=wrap;html=1;fontSize=12;glass=0;strokeWidth=1;shadow=0;" parent="vO7_4hMNc0B0kv95RmNf-16" vertex="1">
          <mxGeometry x="186.87" y="210" width="186.25" height="70" as="geometry" />
        </mxCell>
        <mxCell id="vO7_4hMNc0B0kv95RmNf-3" value="" style="edgeStyle=orthogonalEdgeStyle;rounded=0;orthogonalLoop=1;jettySize=auto;html=1;" parent="vO7_4hMNc0B0kv95RmNf-16" source="WIyWlLk6GJQsqaUBKTNV-7" target="WIyWlLk6GJQsqaUBKTNV-12" edge="1">
          <mxGeometry relative="1" as="geometry" />
        </mxCell>
        <mxCell id="WIyWlLk6GJQsqaUBKTNV-3" value="Ảnh chân dung&amp;nbsp;" style="rounded=1;whiteSpace=wrap;html=1;fontSize=12;glass=0;strokeWidth=1;shadow=0;" parent="vO7_4hMNc0B0kv95RmNf-16" vertex="1">
          <mxGeometry x="181.87" y="30" width="196.25" height="70" as="geometry" />
        </mxCell>
        <mxCell id="vO7_4hMNc0B0kv95RmNf-2" value="" style="edgeStyle=orthogonalEdgeStyle;rounded=0;orthogonalLoop=1;jettySize=auto;html=1;" parent="vO7_4hMNc0B0kv95RmNf-16" source="WIyWlLk6GJQsqaUBKTNV-3" target="WIyWlLk6GJQsqaUBKTNV-7" edge="1">
          <mxGeometry relative="1" as="geometry" />
        </mxCell>
        <mxCell id="vO7_4hMNc0B0kv95RmNf-55" style="edgeStyle=orthogonalEdgeStyle;rounded=0;orthogonalLoop=1;jettySize=auto;html=1;entryX=0;entryY=0.5;entryDx=0;entryDy=0;" parent="vO7_4hMNc0B0kv95RmNf-16" source="vO7_4hMNc0B0kv95RmNf-6" target="WIyWlLk6GJQsqaUBKTNV-3" edge="1">
          <mxGeometry relative="1" as="geometry">
            <Array as="points">
              <mxPoint x="60" y="815" />
              <mxPoint x="60" y="65" />
            </Array>
          </mxGeometry>
        </mxCell>
        <mxCell id="vO7_4hMNc0B0kv95RmNf-6" value="Open" style="rounded=1;whiteSpace=wrap;html=1;fontSize=12;glass=0;strokeWidth=1;shadow=0;" parent="vO7_4hMNc0B0kv95RmNf-16" vertex="1">
          <mxGeometry x="191.23999999999998" y="780" width="177.5" height="70" as="geometry" />
        </mxCell>
        <mxCell id="vO7_4hMNc0B0kv95RmNf-49" style="edgeStyle=orthogonalEdgeStyle;rounded=0;orthogonalLoop=1;jettySize=auto;html=1;entryX=0.5;entryY=1;entryDx=0;entryDy=0;" parent="vO7_4hMNc0B0kv95RmNf-16" source="vO7_4hMNc0B0kv95RmNf-5" target="vO7_4hMNc0B0kv95RmNf-28" edge="1">
          <mxGeometry relative="1" as="geometry" />
        </mxCell>
        <mxCell id="vO7_4hMNc0B0kv95RmNf-5" value="Close" style="rounded=1;whiteSpace=wrap;html=1;fontSize=12;glass=0;strokeWidth=1;shadow=0;" parent="vO7_4hMNc0B0kv95RmNf-16" vertex="1">
          <mxGeometry x="605" y="580" width="150" height="70" as="geometry" />
        </mxCell>
        <mxCell id="vO7_4hMNc0B0kv95RmNf-50" style="edgeStyle=orthogonalEdgeStyle;rounded=0;orthogonalLoop=1;jettySize=auto;html=1;entryX=1;entryY=0.5;entryDx=0;entryDy=0;" parent="vO7_4hMNc0B0kv95RmNf-16" source="vO7_4hMNc0B0kv95RmNf-28" target="WIyWlLk6GJQsqaUBKTNV-7" edge="1">
          <mxGeometry relative="1" as="geometry">
            <Array as="points">
              <mxPoint x="680" y="245" />
            </Array>
          </mxGeometry>
        </mxCell>
        <mxCell id="vO7_4hMNc0B0kv95RmNf-28" value="Warning" style="whiteSpace=wrap;html=1;rounded=1;glass=0;strokeWidth=1;shadow=0;" parent="vO7_4hMNc0B0kv95RmNf-16" vertex="1">
          <mxGeometry x="600" y="320" width="160" height="80" as="geometry" />
        </mxCell>
        <mxCell id="vO7_4hMNc0B0kv95RmNf-47" value="" style="edgeStyle=orthogonalEdgeStyle;rounded=0;orthogonalLoop=1;jettySize=auto;html=1;" parent="vO7_4hMNc0B0kv95RmNf-16" source="vO7_4hMNc0B0kv95RmNf-45" target="vO7_4hMNc0B0kv95RmNf-6" edge="1">
          <mxGeometry relative="1" as="geometry" />
        </mxCell>
        <mxCell id="vO7_4hMNc0B0kv95RmNf-48" style="edgeStyle=orthogonalEdgeStyle;rounded=0;orthogonalLoop=1;jettySize=auto;html=1;entryX=0;entryY=0.5;entryDx=0;entryDy=0;" parent="vO7_4hMNc0B0kv95RmNf-16" source="vO7_4hMNc0B0kv95RmNf-45" target="vO7_4hMNc0B0kv95RmNf-5" edge="1">
          <mxGeometry relative="1" as="geometry" />
        </mxCell>
        <mxCell id="vO7_4hMNc0B0kv95RmNf-45" value="Cropped image" style="rhombus;whiteSpace=wrap;html=1;" parent="vO7_4hMNc0B0kv95RmNf-16" vertex="1">
          <mxGeometry x="202.19" y="540" width="158.12" height="150" as="geometry" />
        </mxCell>
        <mxCell id="vO7_4hMNc0B0kv95RmNf-25" value="" style="swimlane;startSize=0;fillColor=#0050ef;fontColor=#ffffff;strokeColor=#001DBC;fontSize=16;fontFamily=Helvetica;strokeWidth=8;" parent="WIyWlLk6GJQsqaUBKTNV-1" vertex="1">
          <mxGeometry x="340" y="160" width="240" height="240" as="geometry" />
        </mxCell>
        <mxCell id="vO7_4hMNc0B0kv95RmNf-21" value="Camera" style="rounded=1;whiteSpace=wrap;html=1;fontSize=16;" parent="vO7_4hMNc0B0kv95RmNf-25" vertex="1">
          <mxGeometry x="60" y="10" width="120" height="60" as="geometry" />
        </mxCell>
        <mxCell id="vO7_4hMNc0B0kv95RmNf-22" value="Video" style="rounded=1;whiteSpace=wrap;html=1;fontSize=15;" parent="vO7_4hMNc0B0kv95RmNf-25" vertex="1">
          <mxGeometry x="60" y="150" width="120" height="60" as="geometry" />
        </mxCell>
        <mxCell id="vO7_4hMNc0B0kv95RmNf-23" value="" style="edgeStyle=orthogonalEdgeStyle;rounded=0;orthogonalLoop=1;jettySize=auto;html=1;" parent="vO7_4hMNc0B0kv95RmNf-25" source="vO7_4hMNc0B0kv95RmNf-21" target="vO7_4hMNc0B0kv95RmNf-22" edge="1">
          <mxGeometry relative="1" as="geometry" />
        </mxCell>
        <mxCell id="vO7_4hMNc0B0kv95RmNf-52" style="edgeStyle=orthogonalEdgeStyle;rounded=0;orthogonalLoop=1;jettySize=auto;html=1;entryX=0.5;entryY=0;entryDx=0;entryDy=0;" parent="WIyWlLk6GJQsqaUBKTNV-1" source="vO7_4hMNc0B0kv95RmNf-22" target="WIyWlLk6GJQsqaUBKTNV-3" edge="1">
          <mxGeometry relative="1" as="geometry" />
        </mxCell>
        <mxCell id="vO7_4hMNc0B0kv95RmNf-53" value="Database&lt;br style=&quot;font-size: 20px;&quot;&gt;" style="rounded=0;whiteSpace=wrap;html=1;fontSize=20;" parent="WIyWlLk6GJQsqaUBKTNV-1" vertex="1">
          <mxGeometry x="910" y="170" width="260" height="110" as="geometry" />
        </mxCell>
      </root>
    </mxGraphModel>
  </diagram>
</mxfile>
